<?xml version="1.0" ?>
<svg height="64" viewBox="0 0 64 64" width="64" xmlns="http://www.w3.org/2000/svg"><defs><style>.cls-1{fill:none;stroke:#8E8E8E;stroke-linejoin:round;stroke-width:2px;}</style></defs><title/><g data-name="22-Gift" id="_22-Gift"><path class="cls-1" d="M6,59a4,4,0,0,0,4,4H48a4,4,0,0,0,4-4V48"/><polyline class="cls-1" points="31 13 6 13 6 45"/><path class="cls-1" d="M41,11V5a4,4,0,0,0-4-4H21a4,4,0,0,0-4,4V23"/><line class="cls-1" x1="6" x2="24" y1="19" y2="19"/><circle class="cls-1" cx="17" cy="25" r="2"/><path class="cls-1" d="M15,32c-4,0-5,4-5,4v1.97C10,41.947,12.239,45,15,45s5-3.053,5-7.03V36S19,32,15,32Z"/><path class="cls-1" d="M24,59V51a4,4,0,0,0-4-4,2.938,2.938,0,0,1-3-3"/><path class="cls-1" d="M13,44a2.938,2.938,0,0,1-3,3,4,4,0,0,0-4,4v8"/><line class="cls-1" x1="10" x2="10" y1="52" y2="59"/><line class="cls-1" x1="20" x2="20" y1="52" y2="59"/><path class="cls-1" d="M58,31A17,17,0,1,0,37,47.507V55l7.331-7.331A17,17,0,0,0,58,31Z"/><rect class="cls-1" height="4" width="20" x="31" y="26"/><path class="cls-1" d="M33,30v9a1,1,0,0,0,1,1H48a1,1,0,0,0,1-1V30"/><line class="cls-1" x1="37" x2="37" y1="26" y2="30"/><line class="cls-1" x1="45" x2="45" y1="26" y2="30"/><line class="cls-1" x1="38" x2="38" y1="30" y2="40"/><line class="cls-1" x1="44" x2="44" y1="30" y2="40"/><path class="cls-1" d="M41,26V22a1.959,1.959,0,0,0-2-2H36v3a2.938,2.938,0,0,0,3,3"/><path class="cls-1" d="M41,26V22a1.959,1.959,0,0,1,2-2h3v3a2.938,2.938,0,0,1-3,3"/><path class="cls-1" d="M48,55v2a1.959,1.959,0,0,1-2,2H44"/><line class="cls-1" x1="34" x2="32" y1="55" y2="55"/><line class="cls-1" x1="30" x2="28" y1="55" y2="55"/></g></svg>